<svg xmlns="http://www.w3.org/2000/svg" width="691.789" height="752.872" viewBox="0 0 691.789 752.872">
  <g id="Group_17" data-name="Group 17" transform="translate(-266.53 -165.441)">
    <path id="Path" d="M1.062,2.123H690.781a1.063,1.063,0,0,0,0-2.123H1.062a1.062,1.062,0,1,0,0,2.123Z" transform="translate(266.53 858.639)" fill="#e8e8e8"/>
    <path id="Path-2" data-name="Path" d="M1.009,2.123H256.8A1.063,1.063,0,0,0,256.8,0H1.009a1.063,1.063,0,0,0,0,2.123Z" transform="translate(420.806 873.856)" fill="#e8e8e8"/>
    <path id="Path-3" data-name="Path" d="M1.009,2.123H247.17a1.063,1.063,0,0,0,0-2.123H1.009a1.063,1.063,0,0,0,0,2.123Z" transform="translate(643.752 889.002)" fill="#e8e8e8"/>
    <path id="Path-4" data-name="Path" d="M1.062,2.123H81.747a1.063,1.063,0,0,0,0-2.123H1.062a1.062,1.062,0,1,0,0,2.123Z" transform="translate(277.713 877.041)" fill="#e8e8e8"/>
    <path id="Path-5" data-name="Path" d="M.718,2.039c9.413,2.69,19.605,2.973,29.231,4.034,10.9,1.2,21.8,2.336,32.7,3.539,21.587,2.336,43.1,4.6,64.69,6.936,1.345.142,1.345-1.982,0-2.123L64.063,7.631C53.659,6.5,43.184,5.366,32.78,4.3,22.376,3.172,11.335,2.959,1.284.058.01-.367-.556,1.685.718,2.039Z" transform="translate(788.852 491.463)" fill="#1e1e1e"/>
    <path id="Path-6" data-name="Path" d="M24.506.529A339.32,339.32,0,0,1,.159,46.109C-.549,47.242,1.292,48.3,2,47.171A339.32,339.32,0,0,0,26.347,1.591c.566-1.2-1.274-2.265-1.84-1.062Z" transform="translate(916.455 460.345)" fill="#1e1e1e"/>
    <path id="Path-7" data-name="Path" d="M1.5,34.9C15.94,24.5,29.954,13.454,43.33,1.776c1.062-.92-.5-2.406-1.486-1.486C28.538,11.826,14.737,22.8.44,33.059c-1.062.779,0,2.69,1.062,1.84Z" transform="translate(789.342 457.895)" fill="#1e1e1e"/>
    <path id="Path-8" data-name="Path" d="M1.009,3.232c17.977-2.123,36.167-.708,54.215.212,18.331.92,36.733,1.84,55.064,2.76,1.345.071,1.345-2.053,0-2.123-18.331-.92-36.733-1.84-55.064-2.76C37.175.4,18.986-1.014,1.009,1.109c-1.345.142-1.345,2.265,0,2.123Z" transform="translate(831.381 456.155)" fill="#1e1e1e"/>
    <path id="Path-9" data-name="Path" d="M3.613.482C2.481,2.393,1.278,4.233.145,6.144a1.111,1.111,0,0,0,.92,1.628,46.037,46.037,0,0,1,7.644.283c1.416.142,3.822,1.132,5.308.637C16.282,7.914,17.84,3.738,18.76,1.9c.637-1.2-1.2-2.265-1.84-1.062A25.1,25.1,0,0,1,14.8,4.658c-1.486,1.769-2.9,1.769-5.025,1.416a51.264,51.264,0,0,0-8.706-.425c.283.566.637,1.062.92,1.628C3.118,5.366,4.321,3.526,5.454,1.615A1.082,1.082,0,0,0,3.613.482Z" transform="translate(851.85 472.353)" fill="#e8e8e8"/>
    <path id="Path-10" data-name="Path" d="M1.351,2.877a18.027,18.027,0,0,1,12.032.637c1.274.566,2.336-1.274,1.062-1.84A19.947,19.947,0,0,0,.714.825c-1.274.354-.708,2.406.637,2.053Z" transform="translate(855.528 471.02)" fill="#e8e8e8"/>
    <path id="Path-11" data-name="Path" d="M1.009,2.15a38.072,38.072,0,0,1,10.97,1.132,1.065,1.065,0,0,0,.566-2.053A42.378,42.378,0,0,0,1.009.027C-.336.1-.336,2.221,1.009,2.15Z" transform="translate(823.171 473.375)" fill="#e8e8e8"/>
    <path id="Path-12" data-name="Path" d="M1.776,8.853C4.041,6.376,6.447,4.041,8.924,1.776,9.915.856,8.429-.631,7.438.29,4.961,2.554,2.625,4.961.29,7.367c-.92.991.566,2.548,1.486,1.486Z" transform="translate(822.829 465.751)" fill="#e8e8e8"/>
    <path id="Path-13" data-name="Path" d="M.529,1.95c3.114,1.557,7.148,1.132,10.617,1.2,1.345.071,1.345-2.053,0-2.123C8.244.959,4.28,1.455,1.591.11.388-.456-.674,1.313.529,1.95Z" transform="translate(829.808 465.647)" fill="#e8e8e8"/>
    <path id="Path-14" data-name="Path" d="M5.114.484C3.415,2.82,1.716,5.226.159,7.7-.549,8.836,1.292,9.9,2,8.765,3.556,6.288,5.184,3.881,6.954,1.546,7.732.413,5.892-.648,5.114.484Z" transform="translate(834.283 466.972)" fill="#e8e8e8"/>
    <path id="Path-15" data-name="Path" d="M2.9,4.459a1.217,1.217,0,0,1,0-2.194c.425-.142,1.132-.071,1.274.425.142.283-.142.991-.566.92a1.07,1.07,0,0,0-1.274.708,1.013,1.013,0,0,0,.708,1.274A2.8,2.8,0,0,0,6.3,2.9,2.992,2.992,0,0,0,3.256,0,3.187,3.187,0,0,0,.071,2.548,3.331,3.331,0,0,0,1.7,6.228c1.345.637,2.406-1.2,1.2-1.769Z" transform="translate(438.163 573.338)" fill="#532927"/>
    <g id="background" transform="translate(234.483 165.441)">
      <circle id="Oval" cx="9.555" cy="9.555" r="9.555" transform="translate(555.37 373.005)" fill="#c41a27"/>
      <circle id="Oval-2" data-name="Oval" cx="5.025" cy="5.025" r="5.025" transform="translate(578.797 361.114)" fill="#c41a27"/>
      <circle id="Oval-3" data-name="Oval" cx="12.315" cy="12.315" r="12.315" transform="translate(468.952 12.822)" fill="#c41a27"/>
      <circle id="Oval-4" data-name="Oval" cx="6.724" cy="6.724" r="6.724" transform="translate(101.267 331.034)" fill="#c41a27"/>
      <circle id="Oval-5" data-name="Oval" cx="7.219" cy="7.219" r="7.219" transform="translate(109.548 316.454)" fill="#c41a27"/>
      <path id="Oval-6" data-name="Oval" d="M10.758,0A10.758,10.758,0,1,1,0,10.758,10.758,10.758,0,0,1,10.758,0Z" transform="translate(458.689 12.822)" fill="#c41a27"/>
      <path id="Path-16" data-name="Path" d="M2.272,20.933c.142-1.486.849-2.123,2.053-2.053a4.686,4.686,0,0,1,1.982-.071,12.1,12.1,0,0,0,2.265,0,4.911,4.911,0,0,0,2.9-1.416,6.413,6.413,0,0,0,1.132-3.185c.637-3.751,3.327-2.477,5.8-1.84a6.225,6.225,0,0,0,6.865-2.123A21.245,21.245,0,0,0,27.61,6.141c.849-1.7,4.954-6.936,6.37-2.69.425,1.274,2.477.708,2.053-.566C34.9-.441,30.866-.8,28.388,1.328c-2.194,1.911-2.76,4.884-4.459,7.078-2.9,3.893-5.945.637-9.626.779a3.643,3.643,0,0,0-3.256,2.194c-.991,2.053.071,2.973-2.194,4.388-2.053,1.345-2.619.566-4.813.849-2.831.425-5.8,3.963-2.76,6.087.991.849,2.053-.991.991-1.769Z" transform="translate(504.687 165.716)" fill="#c41a27"/>
      <path id="Path-17" data-name="Path" d="M2.81,18.632c-1.132-1.486-.708-2.265,1.2-2.477a3.46,3.46,0,0,1,3.751-.5c.637.071,1.345.212,1.982.283a8.13,8.13,0,0,0,4.317-.779,1.053,1.053,0,0,0,.354-1.486C11.94,8.652,19.655,7.8,22.273,7.662a20.29,20.29,0,0,0,6.511-.779c2.69-1.062,4.53-2.973,4.813-5.874.142-1.345-1.982-1.345-2.123,0-.637,6.865-11.961,3.4-16.066,5.945-2.831,1.7-4.247,4.813-2.76,7.856A11.313,11.313,0,0,0,13,13.324c-3.61,1.7-8.989-1.982-12.032,1.628a3.679,3.679,0,0,0,.708,5.591c1.274.637,2.336-1.2,1.132-1.911Z" transform="translate(513.563 173.892)" fill="#c41a27"/>
      <path id="Path-18" data-name="Path" d="M2.355,10.457C.727,4.229,8.3-.938,13.042,4.158S12.051,16.4,5.964,14.35C4.69,13.925,4.124,15.977,5.4,16.4c8.21,2.76,15.288-7.219,9.13-13.731C8.371-3.911-1.892,2.742.3,11.023a1.065,1.065,0,0,0,2.053-.566Z" transform="translate(255.612 46.53)" fill="#c41a27"/>
      <path id="Path-19" data-name="Path" d="M.159,1.591A29.656,29.656,0,0,0,27.621,16.029c1.345-.071,1.345-2.194,0-2.123A27.61,27.61,0,0,1,2,.529,1.062,1.062,0,0,0,.159,1.591Z" transform="translate(259.365 568.739)" fill="#c41a27"/>
      <path id="Path-20" data-name="Path" d="M.318,1.838a41.376,41.376,0,0,0,27.957,12.6c1.345.071,1.345-2.053,0-2.123A39.25,39.25,0,0,1,1.8.281C.884-.639-.673.918.318,1.838Z" transform="translate(254.888 580.666)" fill="#c41a27"/>
      <path id="Path-21" data-name="Path" d="M1.842.356c-4.671,5.874.142,15.288,7.715,14.438,3.68-.425,8.281-2.619,9.767,2.406.708,2.336.283,4.884.849,7.219.779,3.4,3.539,7.007,7.361,5.733,1.274-.425.708-2.477-.566-2.053-5.167,1.7-4.813-7.29-5.308-10.192-.425-2.548-1.486-4.954-4.034-5.874-3.68-1.345-7.5,1.7-11.112.354C2.479,10.9.639,5.24,3.4,1.842,4.178.851,2.691-.706,1.842.356Z" transform="translate(617.328 102.035)" fill="#e8e8e8"/>
      <path id="Path-22" data-name="Path" d="M.807.482c-1.769,2.9-.425,5.945,2.053,8,3.185,2.548,6.795,2.336,10.687,2.69,3.327.283,5.945,1.2,7.715,4.176,1.2,2.053,1.628,4.459,2.9,6.441,1.769,2.69,4.884,4.671,8.069,3.327,1.274-.5.708-2.548-.566-2.053-4.53,1.911-6.441-3.963-7.715-6.936-1.062-2.548-2.477-4.671-5.1-5.874-2.265-1.062-4.884-1.132-7.361-1.274C8.309,8.763-.538,6.923,2.647,1.615A1.082,1.082,0,0,0,.807.482Z" transform="translate(608.526 116.276)" fill="#e8e8e8"/>
      <path id="Path-23" data-name="Path" d="M2.534,8.236c.92-2.406,2.123-3.114,3.539-2.053a4.5,4.5,0,0,1,1.557.991c.849.637,1.557,1.345,2.406,1.982a10.059,10.059,0,0,0,3.327,1.769,5.244,5.244,0,0,0,5.167-1.557C20.157,7.74,20.582,4.7,22.422,3.281c1.769-1.345,2.9.779,4.176,1.982,1.274,1.132,2.619,2.194,3.963,3.185,1.132.779,2.194-1.062,1.062-1.84a44.986,44.986,0,0,1-6.936-6.3A1.133,1.133,0,0,0,23.625.026c-2.265.708-3.468,2.477-4.6,4.53-.991,1.84-1.557,3.4-3.751,3.963-2.831.708-4.459-1.628-6.582-3.185s-4.813-2.69-7.148-.849A3.679,3.679,0,0,0,.481,9.3c.92,1.2,2.76.142,2.053-1.062Z" transform="translate(110 510.357)" fill="#e8e8e8"/>
      <path id="Path-24" data-name="Path" d="M.027,1.351A7.622,7.622,0,0,0,8.308,7.508c2.265-.283,3.822-1.84,5.733-2.973a9.628,9.628,0,0,1,10.687.071c1.132.708,2.194-1.132,1.062-1.84a11.771,11.771,0,0,0-10.829-1.2,37.335,37.335,0,0,0-4.53,2.831C6.963,6.376,2.858,4.819,2.008.714,1.8-.56-.256.006.027,1.351Z" transform="translate(113.144 526.796)" fill="#e8e8e8"/>
      <path id="Path-25" data-name="Path" d="M1.009,2.13A16.83,16.83,0,0,1,14.385,11.4c.637,1.2,2.477.142,1.84-1.062A18.923,18.923,0,0,0,1.009.007c-1.345-.142-1.345,1.982,0,2.123Z" transform="translate(140.601 22.795)" fill="#161616"/>
      <path id="Path-26" data-name="Path" d="M.529,1.947a43.08,43.08,0,0,1,21.3,22.295c.5,1.274,2.548.708,2.053-.566A45.048,45.048,0,0,0,1.591.107C.388-.459-.674,1.381.529,1.947Z" transform="translate(141.647 2.452)" fill="#161616"/>
      <path id="Path-27" data-name="Path" d="M.254,1.852A25.73,25.73,0,0,1,6.765,19.546a1.063,1.063,0,0,0,2.123,0A28.2,28.2,0,0,0,1.74.365C.891-.7-.6.79.254,1.852Z" transform="translate(164.783 0)" fill="#161616"/>
      <path id="Path-28" data-name="Path" d="M2.15,11.1C1.229,4.8,8.307-1.078,13.615,4.018c4.884,4.671-1.132,12.244-6.582,8.706-1.132-.779-2.194,1.062-1.062,1.84C13.12,19.235,21.4,9.68,15.739,3.169,9.156-4.475-1.106,3.027.1,11.733c.212,1.274,2.265.708,2.053-.637Z" transform="translate(485.983 586.695)" fill="#c41a27"/>
      <path id="Path-29" data-name="Path" d="M2.32,6.777C1.188,3.168,5.859.266,8.195,3.522c2.123,2.973-1.416,6.441-4.459,4.884-1.2-.637-2.265,1.2-1.062,1.84,5.167,2.69,10.829-3.4,7.078-8.139C5.93-2.778-1.5,1.611.268,7.343c.425,1.274,2.477.779,2.053-.566Z" transform="translate(494.518 557.678)" fill="#c41a27"/>
    </g>
    <g id="bot" transform="translate(392.583 233.95)">
      <g id="leg_left" transform="translate(204.782 301.735)">
        <path id="Path-30" data-name="Path" d="M19.464.021C17.2.163,15.571,1.3,12.386,3.56A58.013,58.013,0,0,0,0,15.521,124.669,124.669,0,0,0,8,39.444a128.523,128.523,0,0,0,37.229,47.42,20.7,20.7,0,0,0,4.459-8.422,20.816,20.816,0,0,0-.92-11.961c-2.619-8.422-4.388-17.128-6.653-25.692-4.742-17.765-2.336-19.747-7.078-27.957C33.548,10.355,27.178-.545,19.464.021Z" transform="translate(0.967 222.076)" fill="#1e1e1e"/>
        <path id="Path-31" data-name="Path" d="M52.375,21.728A159.061,159.061,0,0,1,60.8,42.112a155.98,155.98,0,0,1,8,43.457,153.342,153.342,0,0,1-8,52.729c-9.484,28.24-24.63,46.43-34.61,58.037A209.414,209.414,0,0,1,0,222.027a15.457,15.457,0,0,0,2.194,8c4.6,7.219,14.014,7.078,14.651,7.078a205.011,205.011,0,0,0,20.384-16.42,205.537,205.537,0,0,0,24.843-27.037,172.515,172.515,0,0,0,24.347-42.112A169.052,169.052,0,0,0,98.38,94.77c.566-15.217-1.132-25.975-3.539-41.192-3.893-24.984-8.847-35.105-12.386-41.192A84.6,84.6,0,0,0,73.608,0Q62.991,10.829,52.375,21.728Z" transform="translate(19.015 0)" fill="#fff"/>
        <path id="Path-32" data-name="Path" d="M52.943,1.591A142.689,142.689,0,0,1,67.311,90.628c-4.6,27.6-17.553,53.224-34.822,75.023A226.87,226.87,0,0,1,.356,198.421c-1.062.849.5,2.406,1.486,1.486,21.658-18.26,40.555-40.2,53.295-65.539,13.306-26.541,18.827-56.2,14.934-85.711A144.28,144.28,0,0,0,54.854.529a1.1,1.1,0,0,0-1.911,1.062Z" transform="translate(17.809 23.039)" fill="#161616"/>
        <path id="Path-33" data-name="Path" d="M61.587,1.591c16,29.868,22.436,64.478,19.251,98.167-3.256,34.681-17.128,66.884-39.069,93.779a260.418,260.418,0,0,1-41.4,39.989c-1.062.849.425,2.336,1.486,1.486,27.461-21.587,52.021-48.057,66.6-80.119,14.085-30.929,18.26-66.035,13.164-99.512A172.143,172.143,0,0,0,63.427.529c-.637-1.2-2.477-.142-1.84,1.062Z" transform="translate(34.716 3.505)" fill="#161616"/>
        <path id="Path-34" data-name="Path" d="M.007,1.009C1.21,10.563,9.066,20.9,19.753,16.792c1.274-.5.708-2.548-.566-2.053-9.343,3.61-16-5.45-17.057-13.731C1.989-.336-.135-.336.007,1.009Z" transform="translate(17.592 221.018)" fill="#161616"/>
        <path id="Path-35" data-name="Path" d="M16.962.132A46.877,46.877,0,0,0,.188,14.924c-.779,1.132,1.062,2.194,1.84,1.062a44.776,44.776,0,0,1,16-14.014c1.2-.637.142-2.477-1.062-1.84Z" transform="translate(0 221.682)" fill="#161616"/>
        <path id="Path-36" data-name="Path" d="M.041,1.335A126.535,126.535,0,0,0,44.7,71.97c1.062.849,2.548-.637,1.486-1.486A124.726,124.726,0,0,1,2.093.769a1.065,1.065,0,0,0-2.053.566Z" transform="translate(0.36 237.182)" fill="#161616"/>
        <path id="Path-37" data-name="Path" d="M.041,1.335c3.114,11.749,6.3,23.427,9.413,35.176,2.9,10.687,8.918,25.2.566,34.893-.92,1.062.637,2.548,1.486,1.486,7.785-9.059,4.247-21.233,1.486-31.566C9.383,27.806,5.7,14.287,2.093.769a1.065,1.065,0,0,0-2.053.566Z" transform="translate(35.465 236.758)" fill="#161616"/>
        <path id="Path-38" data-name="Path" d="M2,16.512A29.5,29.5,0,0,1,28.47,2.145c1.345.071,1.345-2.053,0-2.123A31.618,31.618,0,0,0,.159,15.451C-.549,16.583,1.292,17.645,2,16.512Z" transform="translate(77.529 22.91)" fill="#161616"/>
        <path id="Path-39" data-name="Path" d="M1.74,12.118A28.172,28.172,0,0,1,19.363,2.068C20.708,1.856,20.142-.2,18.8.015A29.559,29.559,0,0,0,.254,10.632C-.6,11.694.891,13.18,1.74,12.118Z" transform="translate(85.716 57.88)" fill="#161616"/>
        <path id="Path-40" data-name="Path" d="M1.883,8.939A29.045,29.045,0,0,1,21.842,2.144c1.345.071,1.345-2.053,0-2.123A31.448,31.448,0,0,0,.326,7.452c-.991.849.5,2.336,1.557,1.486Z" transform="translate(88.97 39.685)" fill="#161616"/>
        <path id="Path-41" data-name="Path" d="M1.74,5.789c2.973-3.751,8.281-3.68,12.669-3.539,5.308.212,11.89,2.053,12.669,8.281.142,1.345,2.265,1.345,2.123,0C28.423,4.444,23.185,1.189,17.523.41,12-.368,4.076-.51.254,4.374-.6,5.365.891,6.922,1.74,5.789Z" transform="translate(86.494 104.41)" fill="#161616"/>
        <path id="Path-42" data-name="Path" d="M0,1.009c.5,8.21,4.53,18.9,13.943,19.959,1.345.142,1.345-1.982,0-2.123-8.069-.92-11.4-10.9-11.82-17.836C2.054-.336-.069-.336,0,1.009Z" transform="translate(31.399 209.764)" fill="#161616"/>
        <path id="Path-43" data-name="Path" d="M.027,1.335A24.688,24.688,0,0,0,9.935,16.552c1.132.779,2.194-1.062,1.062-1.84A22.822,22.822,0,0,1,2.079.769C1.8-.576-.256-.01.027,1.335Z" transform="translate(45.529 194.929)" fill="#161616"/>
        <path id="Path-44" data-name="Path" d="M.254,1.912c3.327,4.247,7.078,8.564,12.6,9.626,1.345.283,1.911-1.769.566-2.053C8.251,8.494,4.854,4.319,1.74.355.891-.707-.6.85.254,1.912Z" transform="translate(57.334 193.644)" fill="#161616"/>
        <path id="Path-45" data-name="Path" d="M1.009,2.087a34.255,34.255,0,0,1,24.56,8.989c.991.92,2.548-.566,1.486-1.486A36.106,36.106,0,0,0,1.009.035c-1.345,0-1.345,2.123,0,2.053Z" transform="translate(72.646 152.772)" fill="#161616"/>
        <path id="Path-46" data-name="Path" d="M1.009,2.208a20.124,20.124,0,0,1,14.58,4.247c1.062.849,2.548-.637,1.486-1.486A22.348,22.348,0,0,0,1.009.084c-1.345.071-1.345,2.194,0,2.123Z" transform="translate(86.235 133.188)" fill="#161616"/>
        <path id="Path-47" data-name="Path" d="M73.608,0a259.42,259.42,0,0,1,9.2,37.795C85.427,53.72,88.9,74.316,85.357,99.087c-3.468,24.489-12.1,41.758-18.4,54.144-16.562,32.557-39,55.843-58.249,71.555L0,210.985a117.991,117.991,0,0,0,21.445-17.34c7.644-7.856,12.174-14.722,18.9-25.055,8.493-13.023,12.952-19.888,17.34-29.655a139.426,139.426,0,0,0,12.244-51.6c.637-17.836-2.619-31.566-6.158-46.5a256.781,256.781,0,0,0-7.644-26.046C62.071,9.909,67.875,4.954,73.608,0Z" transform="translate(17.812 10.687)" fill="#666" opacity="0.13"/>
        <path id="Path-48" data-name="Path" d="M66.884,0a128.514,128.514,0,0,1,5.1,16.349,138.8,138.8,0,0,1,3.61,35.742c-.425,25.267-.849,48.553-10.192,73.042-15.925,41.546-49.331,64.9-65.4,74.6a444.083,444.083,0,0,0,29.089-34.256c13.731-17.765,20.525-26.683,26.046-37.795C74.1,89.462,69.078,51.738,67.379,41.334A141.662,141.662,0,0,0,56.621,5.591C60.089,3.751,63.487,1.84,66.884,0Z" transform="translate(18.944 25.055)" fill="#666" opacity="0.13"/>
      </g>
      <g id="lreg_right" transform="translate(170.281 335.952)">
        <path id="Path-49" data-name="Path" d="M8,4.781c-2.973,3.4-2.831,7.29-3.963,22.153C2.411,48.45,1.774,43.992.925,58.43a629.521,629.521,0,0,0,1.345,87.338c1.2,12.6,5.521,51.384,17.27,91.8,6.087,20.879,16.42,49.685,16.845,50.959,3.043,8.493,5.662,15.571,7.5,20.384.425.283,11.253,6.37,19.039,1.345,1.2-.779,4.53-2.973,5.308-7.078a10.306,10.306,0,0,0-1.345-7.078c-2.336-7.078-5.733-17.623-9.343-30.576-6.016-21.658-14.792-54.144-18.19-96.186-1.274-16.066-1.274-27.532-1.345-47,0-18.614,0-39.423,2.69-66.035,1.274-12.74,3.468-30.009,7.5-50.535C38.224,2.021,16.283-4.561,8,4.781Z" transform="translate(1.278 0)" fill="#fff"/>
        <path id="Path-50" data-name="Path" d="M0,10.829A39.377,39.377,0,0,1,2.619,22.082a38.908,38.908,0,0,1-.212,9.272,66.008,66.008,0,0,0,14.58,6.158c2.265.637,4.671,1.2,8.847,2.194,4.813,1.132,8.493,1.911,9.909,2.194,14.863,3.114,22.365,4.671,31.142,5.308a127.812,127.812,0,0,0,15.429.212c1.274-2.053,3.822-6.795,2.194-11.253-1.274-3.539-4.459-5.237-10.192-8.139-11.961-6.158-17.977-9.2-18.119-9.272C48.836,15.854,38.432,10.546,25.48,0A23.089,23.089,0,0,1,16,9.059,23.675,23.675,0,0,1,0,10.829Z" transform="translate(44.952 299.495)" fill="#1e1e1e"/>
        <path id="Path-51" data-name="Path" d="M4.609.982A550.53,550.53,0,0,0,22.8,228.742,557.753,557.753,0,0,0,44.81,289.326c.566,1.274,2.336.142,1.84-1.062A548.94,548.94,0,0,1,2.132,64.964,552.2,552.2,0,0,1,6.732.982c.142-1.345-1.982-1.274-2.123,0Z" transform="translate(0 20.785)" fill="#161616"/>
        <path id="Path-52" data-name="Path" d="M4.882,1.062c-7.5,70.281-7.432,142.19,7.856,211.481A468.942,468.942,0,0,0,29.3,269.8c.5,1.274,2.548.708,2.053-.566C7.218,202.7,0,131.291,2.617,60.868,3.325,40.909,4.882,20.95,7.005,1.062c.142-1.416-1.982-1.416-2.123,0Z" transform="translate(38.371 28.067)" fill="#161616"/>
        <path id="Path-53" data-name="Path" d="M.718,12.734A20.476,20.476,0,0,0,25.065,1.622c.566-1.2-1.274-2.336-1.84-1.062A18.465,18.465,0,0,1,1.284,10.682C.01,10.257-.556,12.31.718,12.734Z" transform="translate(45.083 297.802)" fill="#161616"/>
        <path id="Path-54" data-name="Path" d="M.041,1.335A60.325,60.325,0,0,1,2.306,19.1a1.063,1.063,0,0,0,2.123,0A61.8,61.8,0,0,0,2.093.769a1.065,1.065,0,0,0-2.053.566Z" transform="translate(44.345 308.989)" fill="#161616"/>
        <path id="Path-55" data-name="Path" d="M.365,1.74c9.909,7.785,23.569,9.13,35.53,11.678,14.368,3.043,29.089,7.219,43.882,6.3,1.345-.071,1.345-2.194,0-2.123-14.155.849-28.169-3.043-41.971-5.945C25.916,9.171,11.69,8.039,1.852.254.79-.6-.7.891.365,1.74Z" transform="translate(46.356 328.473)" fill="#161616"/>
        <path id="Path-56" data-name="Path" d="M.327,1.776c9.343,8.493,20.384,14.509,31.637,20.1C37.7,24.707,43.43,27.4,49.092,30.3c2.831,1.416,5.874,2.9,7.927,5.379,3.185,3.893,1.416,8.776-.354,12.952-.5,1.274,1.274,2.336,1.84,1.062,2.194-5.237,4.105-11.112-.212-15.783C53.9,29.025,46.332,26.548,40.528,23.717,26.939,17.134,13.137,10.481,1.813.29.822-.631-.664.856.327,1.776Z" transform="translate(69.68 298.144)" fill="#161616"/>
        <path id="Path-57" data-name="Path" d="M.529,1.972a51.961,51.961,0,0,0,38.5,3.751,1.066,1.066,0,0,0-.566-2.053A49.453,49.453,0,0,1,1.591.132C.388-.5-.674,1.335.529,1.972Z" transform="translate(1.532 57.803)" fill="#161616"/>
        <path id="Path-58" data-name="Path" d="M.529,1.947a43.63,43.63,0,0,0,23.427,3.61c1.345-.142,1.345-2.265,0-2.123A41.236,41.236,0,0,1,1.591.107C.388-.459-.674,1.381.529,1.947Z" transform="translate(0.682 79.556)" fill="#161616"/>
        <path id="Path-59" data-name="Path" d="M.484,3.769c5.379,3.68,11.82,4.6,18.26,3.893C25.256,6.954,33.254,5.467,38.845,2c1.132-.708.071-2.548-1.062-1.84C32.546,3.415,24.831,4.83,18.745,5.538c-6.016.708-12.1-.142-17.2-3.61C.413,1.15-.648,2.99.484,3.769Z" transform="translate(1.152 126.358)" fill="#161616"/>
        <path id="Path-60" data-name="Path" d="M.687,4.83A40.088,40.088,0,0,0,36.217,2,1.062,1.062,0,0,0,35.156.159a38.2,38.2,0,0,1-33.9,2.619C-.02,2.282-.516,4.335.687,4.83Z" transform="translate(4.842 156.155)" fill="#161616"/>
        <path id="Path-61" data-name="Path" d="M.718,8.723C11.689,12.616,22.376,7.662,31.648,2c1.132-.708.071-2.548-1.062-1.84-8.847,5.379-18.9,10.192-29.3,6.511C.01,6.246-.556,8.3.718,8.723Z" transform="translate(15.64 210.653)" fill="#161616"/>
        <path id="Path-62" data-name="Path" d="M13.721.326A25.853,25.853,0,0,1,.769,8.111a1.065,1.065,0,0,0,.566,2.053A27.657,27.657,0,0,0,15.278,1.883C16.127.821,14.641-.665,13.721.326Z" transform="translate(38.804 247.573)" fill="#161616"/>
        <path id="Path-63" data-name="Path" d="M1.32,6.435A38.067,38.067,0,0,0,14.272,1.976,1.063,1.063,0,0,0,13.211.136,35.289,35.289,0,0,1,.825,4.383c-1.416.212-.849,2.265.5,2.053Z" transform="translate(33.652 276.428)" fill="#161616"/>
        <path id="Path-64" data-name="Path" d="M31.157,0a253.614,253.614,0,0,0-8.139,40.838c-2.831,24.489-1.345,42.82.5,63.841,6.511,72.4,9.909,109.138,17.907,132.848a299.827,299.827,0,0,0,23,51.6c-.283.354-6.37,7.644-14.3,6.158a13.858,13.858,0,0,1-6.158-3.043,507.913,507.913,0,0,1-19.959-53.153C18.205,220.54.652,160.946.015,79.695a588.986,588.986,0,0,1,4.6-78.137C13.463.991,22.31.5,31.157,0Z" transform="translate(0.772 14.832)" fill="#666" opacity="0.11"/>
        <path id="Path-65" data-name="Path" d="M4.315,0c.991,38.361,3.822,70.635,6.653,95.053,4.813,42.324,8.352,71.484,19.959,108.288a414.487,414.487,0,0,0,29.089,69.5c-5.1.849-10.192,1.7-15.359,2.548q-7.325-15.606-13.8-32.7C-2.9,153.3-3.966,67.379,4.315,0Z" transform="translate(1.073 33.234)" fill="#666" opacity="0.11"/>
      </g>
      <g id="hand_left" transform="translate(315.411 141.983)">
        <path id="Path-66" data-name="Path" d="M2.519.773C1.1,1.693-.666,4.1.254,12.522a58.765,58.765,0,0,0,6.724,21.3c18.756,32.84,14.368,29.089,20.171,36.45,6.936,8.706,16.7,21.021,33.973,28.594,7.432,3.256,17.482,7.715,28.594,4.742a55.857,55.857,0,0,0,16.845-7.856c2.76-2.053,5.662-4.671,10.97-7.29a55.874,55.874,0,0,1,7.573-3.114,13.056,13.056,0,0,0,5.591,1.7c3.68.212,4.813-1.345,8.706-1.7a18.329,18.329,0,0,1,9.555,1.982c4.53,2.406,5.379,5.8,7.29,5.308,2.053-.5,2.76-4.813,2.831-7.007a13.119,13.119,0,0,0-1.982-7.007,17.975,17.975,0,0,0-6.158-6.441,12.527,12.527,0,0,0-3.114-5.591,13.019,13.019,0,0,0-6.441-3.68A8.549,8.549,0,0,0,139.4,58.74c-3.4-3.822-9.343-2.76-10.97-2.548a17.3,17.3,0,0,0-10.121,6.158,8.135,8.135,0,0,0-5.025-1.132,8.624,8.624,0,0,0-5.591,3.68,11.828,11.828,0,0,0-1.982,8.989,32.373,32.373,0,0,0-10.4,2.831c-4.317,2.053-5.733,4.034-9.838,5.591a19.128,19.128,0,0,1-9.838,1.416,17.782,17.782,0,0,1-7.856-3.4A87.051,87.051,0,0,1,47.887,60.155c-21.3-32.062-19.18-27.6-21.3-31.708C19.647,15.212,14.834,1.693,6.978.136A6.439,6.439,0,0,0,2.519.773Z" transform="translate(0 1.288)" fill="#fff"/>
        <path id="Path-67" data-name="Path" d="M.107,1.637A287.431,287.431,0,0,0,34.858,59.249C46.607,74.4,62.249,93.576,83.906,89.471c1.345-.283.779-2.336-.566-2.053C61.187,91.594,44.979,69.37,33.513,53.941A286.634,286.634,0,0,1,2.018.575C1.381-.7-.459.363.107,1.637Z" transform="translate(10.693 0)" fill="#161616"/>
        <path id="Path-68" data-name="Path" d="M.769,11.041c3.043.708,6.158,1.416,9.272.92,3.043-.5,5.662-2.123,8.281-3.61A48.194,48.194,0,0,1,41.253,2.123a1.063,1.063,0,0,0,0-2.123A51.161,51.161,0,0,0,22.639,3.822c-2.9,1.2-5.521,2.9-8.281,4.317C9.97,10.4,6.006,10.121,1.335,8.989a1.065,1.065,0,0,0-.566,2.053Z" transform="translate(71.253 73.9)" fill="#161616"/>
        <path id="Path-69" data-name="Path" d="M.107,1.6C9.591,21.771,19.358,42.438,35.354,58.363c14.014,13.872,34.822,25.55,54.993,19.676a58.393,58.393,0,0,0,15.288-7.29c5.308-3.468,10.475-8.776,17.2-8.847a1.063,1.063,0,0,0,0-2.123c-9.13.142-16.279,8.493-23.993,12.527a41.926,41.926,0,0,1-33.619,2.76c-20.03-6.653-35.034-23.073-45.863-40.555C12.705,23.682,7.256,12.145,1.876.609,1.381-.736-.459.4.107,1.6Z" transform="translate(2.624 26.649)" fill="#161616"/>
        <path id="Path-70" data-name="Path" d="M1.009,2.125c6.37.283,15.642,3.539,13.8,11.749-.283,1.345,1.769,1.911,2.053.566C19.057,4.744,8.865.356,1.009,0c-1.345-.071-1.345,2.053,0,2.123Z" transform="translate(111.143 73.261)" fill="#161616"/>
        <path id="Path-71" data-name="Path" d="M2.079,12.387A54.158,54.158,0,0,1,3.636,4.743C4.84,1.275,9.794,2.124,12.7,2.619c1.345.212,1.911-1.84.566-2.053-2.973-.5-7.644-1.345-10.121.991S.664,8.777.027,11.891c-.283,1.274,1.769,1.84,2.053.5Z" transform="translate(105.048 61.938)" fill="#161616"/>
        <path id="Path-72" data-name="Path" d="M1.57,12.63a130.7,130.7,0,0,0,10.9-7.644c2.619-1.982,5.308-3.4,8.706-2.619a12.2,12.2,0,0,1,7.219,5.591c.779,1.132,2.619.071,1.84-1.062-2.9-4.317-7.5-7.715-13.023-6.724-2.831.5-4.954,2.265-7.148,3.963A110.893,110.893,0,0,1,.438,10.79c-1.062.708,0,2.548,1.132,1.84Z" transform="translate(112.563 55.891)" fill="#161616"/>
        <path id="Path-73" data-name="Path" d="M1.351,6.233A43.284,43.284,0,0,0,9.844,3.189c1.557-.637,3.327-1.2,4.884-.637a10.383,10.383,0,0,1,2.619,1.7,38.92,38.92,0,0,1,4.388,3.963c.991.991,2.477-.566,1.486-1.486C20.744,4.251,16.992.146,13.171,0A9.2,9.2,0,0,0,8.712,1.42a29.119,29.119,0,0,1-8,2.831c-1.274.212-.708,2.265.637,1.982Z" transform="translate(128.071 63.633)" fill="#161616"/>
        <path id="Path-74" data-name="Path" d="M1.018,4.491A71.7,71.7,0,0,0,11.139,2.863c2.548-.566,5.1-1.2,7.432.354,1.982,1.274,3.185,3.4,4.388,5.379.708,1.132,2.548.071,1.84-1.062C22.817,4.35,20.41.811,16.376.1,14.394-.251,12.413.386,10.5.811A72.645,72.645,0,0,1,.947,2.368c-1.274.071-1.274,2.194.071,2.123Z" transform="translate(133.358 71.815)" fill="#161616"/>
        <path id="Path-75" data-name="Path" d="M.723,3.733C5.04,5.361,8.791,3.45,12.967,2.459,19.408.973,23.937,5.007,28.184,9.183c.991.991,2.477-.566,1.486-1.486C26.273,4.37,22.593.9,17.709.123,12.047-.8,6.809,3.8,1.218,1.68c-1.2-.5-1.769,1.557-.5,2.053Z" transform="translate(127 85.455)" fill="#161616"/>
        <path id="Path-76" data-name="Path" d="M1.009,2.208c3.539-.071,7.432.354,10.617,2.053,4.176,2.265,4.884,7.361,1.2,10.4-1.062.849.425,2.336,1.486,1.486A8.142,8.142,0,0,0,15.872,4.969C12.687.722,5.963-.127,1.009.014c-1.345.071-1.345,2.194,0,2.194Z" transform="translate(142.639 78.698)" fill="#161616"/>
        <path id="Path-77" data-name="Path" d="M.107,1.615A11.034,11.034,0,0,1,1.169,5.79c.071,1.345,2.194,1.345,2.123,0A15.447,15.447,0,0,0,1.947.482C1.381-.65-.459.411.107,1.615Z" transform="translate(155.856 78.443)" fill="#161616"/>
        <path id="Path-78" data-name="Path" d="M2.079,14.445A16.366,16.366,0,0,1,16.518,2.13c1.345-.142,1.345-2.265,0-2.123A18.406,18.406,0,0,0,.027,13.879c-.283,1.345,1.769,1.911,2.053.566Z" transform="translate(10.278 30.082)" fill="#161616"/>
        <path id="Path-79" data-name="Path" d="M2.123,12A13.945,13.945,0,0,1,6.37,1.813,1.051,1.051,0,0,0,4.884.327,16.257,16.257,0,0,0,0,12.076C0,13.35,2.123,13.35,2.123,12Z" transform="translate(18.444 46.182)" fill="#161616"/>
        <path id="Path-80" data-name="Path" d="M2.13,18.672A19.445,19.445,0,0,1,15.153,2.11c1.274-.425.708-2.477-.566-2.053A21.723,21.723,0,0,0,.007,18.672c-.142,1.345,1.982,1.345,2.123,0Z" transform="translate(24.453 48.575)" fill="#161616"/>
        <path id="Path-81" data-name="Path" d="M2.125,17.509A17.07,17.07,0,0,1,15.856,2.079C17.2,1.8,16.634-.256,15.289.027A19.108,19.108,0,0,0,0,17.438a1.063,1.063,0,0,0,2.123.071Z" transform="translate(35.074 64.035)" fill="#161616"/>
        <path id="Path-82" data-name="Path" d="M2.13,17.048A19.708,19.708,0,0,1,12.251,1.972c1.2-.637.142-2.477-1.062-1.84A21.731,21.731,0,0,0,.007,17.048c-.142,1.345,1.982,1.345,2.123,0Z" transform="translate(50.57 78.297)" fill="#161616"/>
        <path id="Path-83" data-name="Path" d="M.188,1.57A17.218,17.218,0,0,1,1.25,20.255a1.063,1.063,0,0,0,1.84,1.062A19.546,19.546,0,0,0,2.028.438C1.25-.624-.59.438.188,1.57Z" transform="translate(70.206 82.875)" fill="#161616"/>
        <path id="Path-84" data-name="Path" d="M.027,1.351c.212,1.062.708,1.345,1.7,1.7,1.982.779,3.822.92,5.662,2.123A13.755,13.755,0,0,1,13.474,16.78a1.063,1.063,0,0,0,2.123,0,15.621,15.621,0,0,0-3.68-10.4A16.572,16.572,0,0,0,7.741,2.837C7.034,2.412,2.15,1.068,2.079.714,1.8-.56-.256.006.027,1.351Z" transform="translate(94.856 76.796)" fill="#161616"/>
        <path id="Path-85" data-name="Path" d="M5.1,0c3.68-.283,5.945,14.651,12.74,30.646,5.733,13.377,18.19,42.537,43.457,50.605,12.811,4.105,31.354,3.468,46-4.105,6.511-3.4,9.909-6.936,18.4-8.706,9.555-1.982,23.993-1.345,28.1,6.653a10.927,10.927,0,0,1,.991,6.653c-3.964-4.884-7.573-6.3-10.192-6.653-3.751-.5-5.8,1.132-11.253,1.557a31.408,31.408,0,0,1-10.192-.991A83.213,83.213,0,0,0,107.3,83.308c-6.016,3.751-7.432,5.733-11.749,7.644-7.432,3.256-14.438,2.336-20.454,1.557-14.58-1.982-24.772-8.847-29.655-12.244-4.247-2.973-10.758-8.069-19.393-18.9A165.2,165.2,0,0,1,0,14.372C.92,7.577,2.477.216,5.1,0Z" transform="translate(2.307 12.108)" fill="#666" opacity="0.11"/>
      </g>
      <g id="torso" transform="translate(150.853 131.439)">
        <path id="Path-86" data-name="Path" d="M5.521,38.722c.849,4.317,1.911,10.263,2.973,17.34a362.758,362.758,0,0,1,3.327,47.562,425.507,425.507,0,0,1-4.813,67.521C4.813,185.8,2.123,197.97,0,206.958a100.348,100.348,0,0,0,57.966,26.966c27.107-42.537,47.633-73.962,60.16-92.93,28.311-43.1,48.057-72.192,56.055-116.923a190.833,190.833,0,0,0,2.548-19.534,143.106,143.106,0,0,0-40.2-4.459c-2.9.071-10.05.425-24.347,2.973A374.671,374.671,0,0,0,55.347,17.772,383.312,383.312,0,0,0,5.521,38.722Z" transform="translate(0.61 1.344)" fill="#1e1e1e"/>
        <path id="Path-87" data-name="Path" d="M4.459,40.555c.708,6.087,1.486,14.226,2.053,23.923.708,11.89.708,21.3.708,28.1-.142,28.452-1.769,56.409-2.053,61.717C3.963,174.465,2.336,200.015,0,229.812c13.518-5.45,24.347-10.687,31.85-14.58,27.178-13.943,46.642-28.1,60.3-38.149,10.687-7.856,19.251-14.722,24.984-19.393,1.557-15,2.619-27.957,3.468-38.149,1.062-13.023,2.053-25.409,2.76-41.9.425-9.767.637-14.722.708-21.516a310.964,310.964,0,0,0-2.406-42.961c-.708-5.521-1.486-10.05-2.053-13.164A402.917,402.917,0,0,0,54.781,18.048,396.052,396.052,0,0,0,4.459,40.555Z" transform="translate(57.727 5.952)" fill="#fff"/>
        <path id="Path-88" data-name="Path" d="M1.637,40.42C42.4,19.824,85.932,7.792,131.158,2.13c1.345-.142,1.345-2.265,0-2.123C108.226,2.909,85.507,7.014,63.283,13.6A377.184,377.184,0,0,0,.575,38.58c-1.274.637-.212,2.477,1.062,1.84Z" transform="translate(4.989 0)" fill="#161616"/>
        <path id="Path-89" data-name="Path" d="M1.009,2.229c9.555-.5,19.039.991,28.523,2.265C38.591,5.767,47.65,6.971,56.781,8.245c1.345.212,1.911-1.84.566-2.053C47.792,4.847,38.308,3.573,28.753,2.229,19.552.955,10.351-.39,1.009.105-.336.176-.336,2.3,1.009,2.229Z" transform="translate(5.193 39.112)" fill="#161616"/>
        <path id="Path-90" data-name="Path" d="M1.009,2.388A133.151,133.151,0,0,1,43.616,6.635a1.065,1.065,0,0,0,.566-2.053A134.474,134.474,0,0,0,1.009.265c-1.345.142-1.345,2.265,0,2.123Z" transform="translate(134.006 0.167)" fill="#161616"/>
        <path id="Path-91" data-name="Path" d="M1.615,41.29a474.59,474.59,0,0,1,113.6-39.21c1.345-.283.779-2.336-.566-2.053A479.357,479.357,0,0,0,.482,39.449c-1.132.637-.071,2.477,1.132,1.84Z" transform="translate(62.27 5.288)" fill="#161616"/>
        <path id="Path-92" data-name="Path" d="M3.908,1.009c6.158,48.411,3.114,97.318,0,145.8-.92,14.3-1.84,28.594-3.893,42.749-.212,1.345,1.84,1.911,2.053.566,3.539-24.206,4.459-48.836,5.8-73.254,1.345-24.56,2.265-49.119,1.486-73.679-.5-14.085-1.486-28.24-3.327-42.183C5.819-.336,3.7-.336,3.908,1.009Z" transform="translate(56.367 45.357)" fill="#161616"/>
        <path id="Path-93" data-name="Path" d="M5.335,1.335A442.9,442.9,0,0,1,.027,167.943c-.283,1.345,1.769,1.911,2.053.566A445.9,445.9,0,0,0,7.388.769C7.175-.576,5.123-.01,5.335,1.335Z" transform="translate(0.583 38.377)" fill="#161616"/>
        <path id="Path-94" data-name="Path" d="M.327,1.81A100.7,100.7,0,0,0,56.877,30.262c1.345.212,1.911-1.84.566-2.053A99.24,99.24,0,0,1,1.813.253C.822-.6-.664.89.327,1.81Z" transform="translate(0 206.139)" fill="#161616"/>
        <path id="Path-95" data-name="Path" d="M2.767,1.335c9.13,51.738,3.185,104.4-2.76,156.2-.142,1.345,1.982,1.345,2.123,0C8.075,105.589,14.021,52.79,4.82.769,4.607-.576,2.555-.01,2.767,1.335Z" transform="translate(173.227 5.891)" fill="#161616"/>
        <path id="Path-96" data-name="Path" d="M117.413.253A478.459,478.459,0,0,1,.561,72.516c-1.274.566-.142,2.406,1.062,1.84A482,482,0,0,0,118.9,1.81c1.062-.92-.425-2.406-1.486-1.557Z" transform="translate(55.892 163.036)" fill="#161616"/>
        <path id="Path-97" data-name="Path" d="M2.9,7.146A3.217,3.217,0,0,1,2.05,2.97a3.236,3.236,0,0,1,4.317-.92,3.283,3.283,0,0,1,.92,4.176A3.253,3.253,0,0,1,2.4,6.792c-.779-.708-1.911.425-1.132,1.132a4.827,4.827,0,0,0,6.865-.212A4.8,4.8,0,0,0,7.57.988a4.891,4.891,0,0,0-6.511.566,4.814,4.814,0,0,0,.708,6.724c.849.637,1.982-.5,1.132-1.132Z" transform="translate(66.718 46.793)" fill="#161616"/>
        <path id="Path-98" data-name="Path" d="M0,.743,1.064,24.949c.071.991,1.628,1.062,1.628,0L1.63.743C1.559-.248-.069-.248,0,.743Z" transform="translate(71.384 64.661)" fill="#161616"/>
        <path id="Path-99" data-name="Path" d="M1.222,25.783A491.682,491.682,0,0,1,71.362,1.578.808.808,0,0,0,70.938.021,505.762,505.762,0,0,0,.444,24.368c-.991.5-.142,1.84.779,1.416Z" transform="translate(71.013 39.975)" fill="#161616"/>
        <path id="Path-100" data-name="Path" d="M1.191,25.231a306.943,306.943,0,0,1,57.9-23.639A.808.808,0,0,0,58.662.034,309.018,309.018,0,0,0,.413,23.886c-.92.425-.142,1.769.779,1.345Z" transform="translate(72.602 64.592)" fill="#161616"/>
        <path id="Path-101" data-name="Path" d="M10.123.513C6.8,8.582,3.4,16.65.073,24.719c-.425.92,1.132,1.345,1.557.425C4.956,17.075,8.354,9.006,11.68.938c.354-.92-1.2-1.345-1.557-.425Z" transform="translate(131.262 40.473)" fill="#161616"/>
        <path id="Path-102" data-name="Path" d="M9.7.513C6.59,8.3,3.405,16.084.079,23.8c-.425.92.991,1.769,1.345.779C4.75,16.721,8.076,8.865,11.191.938c.5-.92-1.062-1.345-1.486-.425Z" transform="translate(135.432 40.119)" fill="#161616"/>
        <path id="Path-103" data-name="Path" d="M1.191,9.92C7.773,7.089,14.285,4.258,20.867,1.427c.92-.425.142-1.769-.779-1.345C13.506,2.913,6.995,5.744.413,8.575c-.92.354-.142,1.769.779,1.345Z" transform="translate(135.593 55.414)" fill="#161616"/>
        <path id="Path-104" data-name="Path" d="M.958,5.328A66.936,66.936,0,0,1,13.273,1.577c.991-.212.566-1.769-.425-1.557A61.9,61.9,0,0,0,.533,3.771c-.92.354-.566,1.911.425,1.557Z" transform="translate(145.947 35.871)" fill="#161616"/>
        <path id="Path-105" data-name="Path" d="M3.477.564C2.062,6.438.929,12.384.009,18.4c-.142.991,1.416,1.416,1.557.425C2.486,12.808,3.619,6.863,5.034.989,5.247,0,3.689-.427,3.477.564Z" transform="translate(155.106 36.742)" fill="#161616"/>
        <path id="Path-106" data-name="Path" d="M52.065.108Q26.267,14.759.4,29.409c-.92.5-.071,1.911.779,1.345q25.8-14.651,51.667-29.3c.92-.5.071-1.84-.779-1.345Z" transform="translate(112.251 160.562)" fill="#161616"/>
        <path id="Path-107" data-name="Path" d="M2.126.743c.5,5.662-.354,11.537-.779,17.27C.922,24.1.5,30.186,0,36.273c-.071.991,1.486.991,1.628,0,.425-6.087.849-12.174,1.345-18.26C3.4,12.351,4.249,6.476,3.754.743c-.142-.991-1.769-.991-1.628,0Z" transform="translate(112.293 154.477)" fill="#161616"/>
        <path id="Path-108" data-name="Path" d="M1.2,24.949A304.276,304.276,0,0,1,53.859,1.593.807.807,0,0,0,53.434.036,308.992,308.992,0,0,0,.352,23.533c-.849.5,0,1.911.849,1.416Z" transform="translate(114.209 130.271)" fill="#161616"/>
        <path id="Path-109" data-name="Path" d="M4.408.743A225.761,225.761,0,0,1,.02,29.974c-.212.991,1.345,1.416,1.557.425A232.376,232.376,0,0,0,6.036.743c.071-.991-1.486-.991-1.628,0Z" transform="translate(163.306 130.908)" fill="#161616"/>
        <path id="Path-110" data-name="Path" d="M1.009,2.13A215.01,215.01,0,0,1,37.175,7.863a1.065,1.065,0,0,0,.566-2.053A215.675,215.675,0,0,0,1.009.007c-1.345-.142-1.345,1.982,0,2.123Z" transform="translate(7.316 38.573)" fill="#fff"/>
        <path id="Path-111" data-name="Path" d="M70.281,0C66.813,6.3,61.434,16.42,55.56,29.018,39.706,63.062.283,147.711,26.541,173.332c4.813,4.671,15.5,10.97,42.041,5.45Q34.291,197.679,0,216.647C3.4,185.01,5.025,157.9,5.874,136.67c.566-14.155,1.274-32.628.849-57.258C6.37,58.957,5.308,41.4,4.176,27.674c7.856-4.247,16.42-8.493,25.692-12.6A363.882,363.882,0,0,1,70.281,0Z" transform="translate(58.364 19.329)" fill="#666" opacity="0.1"/>
      </g>
      <g id="hand_right" transform="translate(0 0)">
        <path id="Path-112" data-name="Path" d="M.471,1.265C-.8,3.034.825,6.148,1.6,7.705c1.416,2.69,5.025,8.21,14.58,12.315-3.539.779-4.954,2.194-5.591,3.4-1.274,2.336.283,3.963.283,9.555,0,4.105-.92,4.742-.566,8.139a18.562,18.562,0,0,0,1.982,6.724,52.07,52.07,0,0,0,.849,5.591,14.163,14.163,0,0,0,.849,3.114c1.486,2.69,5.662,4.105,9.272,3.4a10.208,10.208,0,0,0,6.724-5.591c1.911,2.831,3.751,3.68,5.025,3.893,2.336.425,3.893-.92,8.422-1.982a29.287,29.287,0,0,1,5.308-.849c-.142,2.619-.354,6.511-.566,11.253-.637,15.642-.991,23.852-.283,33.69a160.464,160.464,0,0,0,3.68,24.135,138.387,138.387,0,0,0,10.121,30.576c3.68,7.715,9.413,19.817,21.587,31.425,5.521,5.237,18.756,17.553,40.13,22.153a80.543,80.543,0,0,0,36.733-.849c5.8-3.114,11.607-6.158,17.411-9.272a12.471,12.471,0,0,0,2.265-7.007c0-4.884-3.043-9.484-7.856-12.032a99.165,99.165,0,0,1-14.863,2.548,80.155,80.155,0,0,1-31.425-2.831c-5.874-1.769-21.445-6.795-33.407-21.3-5.662-6.865-8.139-13.023-12.315-23.569-4.954-12.386-6.936-22.153-8.989-32.274-4.317-21.8-6.511-32.77-4.459-43.457,1.062-5.521,3.043-12.1,1.7-21.3C66.86,28.3,63.392,23.7,62.33,22.427a32.632,32.632,0,0,0-8.422-7.007c-3.61-2.265-2.9-.991-8.989-4.176a7.23,7.23,0,0,0-3.893-1.132,6.818,6.818,0,0,0-4.176,1.982c-4.459-1.274-8.21-2.477-10.97-3.4C19.581,6.644,16.4,5.653,14.91,4.8,11.159,2.68,9.814.84,6.2.344,5.072-.009,1.745-.5.471,1.265Z" transform="translate(0.45 1.085)" fill="#fff"/>
        <path id="Path-113" data-name="Path" d="M1.639.773A163.466,163.466,0,0,0,1.71,47.415,220.679,220.679,0,0,0,12.822,93.7c4.6,12.527,11.253,24.276,21.658,32.911A72.534,72.534,0,0,0,65.9,141.478a80.862,80.862,0,0,0,39.635-1.7c1.274-.425.779-2.477-.566-2.053-22.224,6.653-47.7,3.326-66.53-10.617-10.758-8-17.977-19.251-22.719-31.637C10.557,82.237,7.3,68.082,4.9,54.139c-2.973-17.482-3.822-35.318-1.2-52.87C3.9-.005,1.852-.571,1.639.773Z" transform="translate(65.953 41.282)" fill="#161616"/>
        <path id="Path-114" data-name="Path" d="M1.083,1.009C-1.536,35.9-.4,72.493,15.875,104.272,29.535,130.955,53.6,152.4,84.1,156.08c16.562,1.982,33.69-1.486,47.42-11.183,1.132-.779.071-2.619-1.062-1.84-24.7,17.482-59.028,13.731-82.738-3.61C22.67,121.046,9.151,91.037,4.48,61.027,1.366,41.21,1.72,20.968,3.206,1.009c.142-1.345-1.982-1.345-2.123,0Z" transform="translate(46.834 55.627)" fill="#161616"/>
        <path id="Path-115" data-name="Path" d="M.718,2.129C8.15,5.1,10.556,13.666,6.168,20.248c-.779,1.132,1.062,2.194,1.84,1.062C13.246,13.524,9.919,3.545,1.284.077.01-.419-.556,1.634.718,2.129Z" transform="translate(170.138 178.861)" fill="#161616"/>
        <path id="Path-116" data-name="Path" d="M19.655,22.19c2.477-4.6-4.459-4.105-6.724-4.813A23.248,23.248,0,0,1,4.509,11.5c-3.185-3.4-3.468-10.4,3.185-9.13C20.929,4.991,35.014,17.094,32.961,31.6c-.212,1.345,1.84,1.911,2.053.566C37.279,15.891,22.274,3.434,7.623.178,2.244-1.025-1.224,4.071.4,9.026,1.395,12,4.014,14.192,6.42,15.962a26.274,26.274,0,0,0,4.813,3.043c.779.283,6.795,1.486,6.441,2.123-.5,1.2,1.345,2.265,1.982,1.062Z" transform="translate(34.49 10.239)" fill="#161616"/>
        <path id="Path-117" data-name="Path" d="M35.318,11.267A106.693,106.693,0,0,1,10.971,2.42C7.432.58.142-2.747,0,4.26-.07,9.852,4.955,15.514,9.131,18.628c6.3,4.742,14.155,6.511,21.728,7.644,1.345.212,1.911-1.84.566-2.053C20.455,22.521,6.088,18.7,2.549,6.454A5.768,5.768,0,0,1,2.124,4.26C3.469,2,4.955,1.5,6.8,2.632,8.069,3.2,9.2,3.906,10.476,4.543c2.336,1.132,4.671,2.265,7.078,3.256a105.784,105.784,0,0,0,17.2,5.521,1.065,1.065,0,0,0,.566-2.053Z" transform="translate(0)" fill="#161616"/>
        <path id="Path-118" data-name="Path" d="M5.458.041C1.495,1.173-.133,6.057.008,9.808c.212,4.813,3.327,8.847,7.361,11.253,3.68,2.265,9.272,4.034,13.164,1.132a5.877,5.877,0,0,0,.991-8.776c-.92-.991-2.406.5-1.486,1.486,1.7,1.769.849,4.459-.92,5.662-1.557,1.062-3.68.991-5.45.708A16.4,16.4,0,0,1,6.1,17.452a11.2,11.2,0,0,1-3.822-6.865c-.425-2.9.425-7.573,3.751-8.564C7.369,1.74,6.8-.313,5.458.041Z" transform="translate(9.335 20.215)" fill="#161616"/>
        <path id="Path-119" data-name="Path" d="M1.063.714a15.238,15.238,0,0,0,4.247,17.2A10.743,10.743,0,0,0,13.59,20.39c2.9-.566,4.6-2.619,6.3-4.884.779-1.132-1.062-2.194-1.84-1.062-1.84,2.477-3.963,4.388-7.219,3.751a10.217,10.217,0,0,1-6.441-4.459,13.282,13.282,0,0,1-1.2-12.386C3.611.006,1.558-.56,1.063.714Z" transform="translate(9.554 33.697)" fill="#161616"/>
        <path id="Path-120" data-name="Path" d="M0,1.035c.212,5.8,2.477,12.527,8.989,13.8C15.925,16.181,19.676,9.1,21.445,3.583c.425-1.274-1.628-1.84-2.053-.566-1.416,4.388-4.317,10.9-10.121,9.626C3.893,11.51,2.265,5.777,2.123,1.035A1.062,1.062,0,0,0,0,1.035Z" transform="translate(11.325 47.744)" fill="#161616"/>
        <path id="Path-121" data-name="Path" d="M.027,1.335C.734,4.449,3.919,5.582,6.821,6.006c4.6.708,8-1.628,12.457-2.123,1.345-.142,1.345-2.265,0-2.123a51.953,51.953,0,0,0-6.3,1.7C10.219,4.237,3,4.874,2.079.769,1.8-.576-.256-.01.027,1.335Z" transform="translate(29.771 53.955)" fill="#161616"/>
        <path id="Path-122" data-name="Path" d="M.687,7.633A16.283,16.283,0,0,0,20.009,1.546C20.788.413,18.948-.648,18.169.484A14.139,14.139,0,0,1,1.254,5.58C-.02,5.085-.516,7.137.687,7.633Z" transform="translate(48.432 49.781)" fill="#161616"/>
        <path id="Path-123" data-name="Path" d="M3.262,1.846c2.76,2.69,2.123,9.7,1.911,13.235C4.89,19.682,3.545,24.07.29,27.467c-.92.991.566,2.477,1.486,1.486,3.61-3.822,5.167-8.706,5.45-13.872C7.509,10.834,8.075,3.615,4.748.289A1.077,1.077,0,0,0,3.262,1.846Z" transform="translate(125.977 181.267)" fill="#161616"/>
        <path id="Path-124" data-name="Path" d="M.132,1.622a27.215,27.215,0,0,1,.212,25.55c-.637,1.2,1.2,2.265,1.84,1.062A29.471,29.471,0,0,0,1.972.561C1.335-.713-.5.419.132,1.622Z" transform="translate(150.128 182.836)" fill="#161616"/>
        <path id="Path-125" data-name="Path" d="M.718,4.123A25.383,25.383,0,0,0,21.81,2,1.062,1.062,0,0,0,20.748.159,23.446,23.446,0,0,1,1.284,2.07C.01,1.645-.556,3.7.718,4.123Z" transform="translate(48.402 96.252)" fill="#161616"/>
        <path id="Path-126" data-name="Path" d="M.769,10.207A23.52,23.52,0,0,0,24.479,1.5C25.328.44,23.488-.622,22.639.44a21.235,21.235,0,0,1-21.3,7.715C-.01,7.871-.576,9.924.769,10.207Z" transform="translate(54.862 131.643)" fill="#161616"/>
        <path id="Path-127" data-name="Path" d="M4.14,1.018a13.22,13.22,0,0,1-3.822,10.4c-.991.991.566,2.477,1.486,1.486A15.3,15.3,0,0,0,6.263.947C6.193-.327,4.069-.327,4.14,1.018Z" transform="translate(90.206 161.146)" fill="#161616"/>
        <path id="Path-128" data-name="Path" d="M.561,1.947a13.524,13.524,0,0,0,9.7.708A1.065,1.065,0,0,0,9.691.6a11.752,11.752,0,0,1-8.069-.5C.419-.459-.713,1.381.561,1.947Z" transform="translate(49.762 118.812)" fill="#161616"/>
        <path id="Path-129" data-name="Path" d="M.769,3.646a26.974,26.974,0,0,0,17.765-1.7c1.274-.566.142-2.406-1.062-1.84A24.816,24.816,0,0,1,1.335,1.593,1.065,1.065,0,0,0,.769,3.646Z" transform="translate(47.926 67.357)" fill="#161616"/>
        <path id="Path-130" data-name="Path" d="M.769,14.024A19.594,19.594,0,0,0,24.054,1.284C24.479.01,22.5-.556,22,.718A17.422,17.422,0,0,1,1.335,11.972a1.065,1.065,0,0,0-.566,2.053Z" transform="translate(67.177 154.721)" fill="#161616"/>
        <path id="Path-131" data-name="Path" d="M13.765,1.269C16.808,10.258,7.536,19.317.529,23.139c-1.2.637-.142,2.477,1.062,1.84C9.447,20.733,19.214,10.611,15.817.773c-.425-1.345-2.477-.779-2.053.5Z" transform="translate(97.426 174.625)" fill="#161616"/>
        <path id="Path-132" data-name="Path" d="M7.947,1.53c2.548,2.619-.5,7.007,1.7,9.838,1.2,1.486,3.893,2.619,10.475,1.345a14.7,14.7,0,0,0,.708,4.742,16.251,16.251,0,0,0,5.379,7.432c4.6,3.4,11.466,3.468,17.623.354.283,4.247.779,10.263,1.345,17.623C48.5,84.9,49.776,92.478,51.616,99.7c2.123,8.493,4.813,19.039,11.82,30.788,4.388,7.29,19.11,31.071,49.4,40.555,25.692,8.069,47.774,1.132,55.489-1.7-.425,2.9-.92,5.874-1.345,8.776a74.391,74.391,0,0,1-14.509,6.795,82.531,82.531,0,0,1-30.434,3.4C92.525,185.62,72,163.113,66.9,157.521c-18.4-20.242-23.639-42.4-26.046-52.446C37.319,90,37.036,76.128,36.824,66.149a238.324,238.324,0,0,1,1.345-31.142,14.9,14.9,0,0,1-8.776,1.345,15.921,15.921,0,0,1-8.776-4.388,9.778,9.778,0,0,1-5.1,5.733c-.212.142-4.247,1.84-7.785,0C4.55,36.069,3.7,32.53,2,25.523A70.11,70.11,0,0,1,.3,13.349C-.546,2.662.586,1.388,1.294.822,2.993-.523,6.319-.169,7.947,1.53Z" transform="translate(10.668 22.69)" fill="#666" opacity="0.13"/>
        <path id="Path-133" data-name="Path" d="M0,0C2.123,2.477,5.379,6.087,9.484,10.121c7.219,7.148,23.639,23.5,41.971,31.142,25.55,10.617,51.95,3.256,63.911-.991-.425,1.486-.92,2.9-1.345,4.388C110.482,46.571,76.934,63.982,41.334,47,11.607,32.911,1.7,5.1,0,0Z" transform="translate(62.567 155.439)" fill="#666" opacity="0.15"/>
      </g>
      <g id="head" transform="translate(154.292 13.171)">
        <path id="Path-134" data-name="Path" d="M1.125,5.839a68.661,68.661,0,0,0-1.062,9.98,79.754,79.754,0,0,0,.849,15,77.13,77.13,0,0,0,1.769,8.706A38.508,38.508,0,0,0,14.855,40.8a39.426,39.426,0,0,0,15-3.893c-.142-1.911-.283-4.954-.637-8.706-.779-8.422-1.416-11.4-1.486-16.916A82.345,82.345,0,0,1,28.161,1.1,32.432,32.432,0,0,0,12.307.885,30.25,30.25,0,0,0,1.125,5.839Z" transform="translate(67.318 94.741)" fill="#fff"/>
        <path id="Path-135" data-name="Path" d="M1.233.769c-2.406,11.183-.849,22.436.92,33.619.212,1.345,2.265.779,2.053-.566C2.507,23.064.95,12.093,3.286,1.335,3.569-.01,1.516-.576,1.233.769Z" transform="translate(66.289 99.033)" fill="#161616"/>
        <path id="Path-136" data-name="Path" d="M1.846,7.582C5.031,4.751,9.7,3.76,13.736,2.91A35.861,35.861,0,0,1,27.467,2.7c1.345.283,1.911-1.769.566-2.053A37.541,37.541,0,0,0,13.17.858C8.64,1.778,3.828,2.91.289,6.1c-.92.92.566,2.406,1.557,1.486Z" transform="translate(67.092 93.707)" fill="#161616"/>
        <path id="Path-137" data-name="Path" d="M.367,1.009a149.348,149.348,0,0,0,1.769,35.53c.212,1.345,2.265.779,2.053-.566a144.8,144.8,0,0,1-1.7-34.964C2.561-.336.438-.336.367,1.009Z" transform="translate(93.98 94.688)" fill="#161616"/>
        <path id="Path-138" data-name="Path" d="M.364,3.7C3.832,6.458,9.707,6.1,13.953,5.963A31.126,31.126,0,0,0,29.029,2,1.062,1.062,0,0,0,27.967.159,28.214,28.214,0,0,1,15.157,3.84c-3.61.212-10.263.708-13.235-1.628C.789,1.362-.7,2.849.364,3.7Z" transform="translate(68.503 130.431)" fill="#161616"/>
        <path id="Path-139" data-name="Path" d="M2.028,9c2.619-3.68,7.007-4.884,11.253-5.8,4.742-1.062,9.626-2.053,14.014.637a1.062,1.062,0,0,0,1.062-1.84C23.474-.982,18.024-.062,12.716,1.141,7.9,2.274,3.232,3.76.188,7.936-.59,9,1.25,10.059,2.028,9Z" transform="translate(66.485 103.969)" fill="#161616"/>
        <path id="Path-140" data-name="Path" d="M1.852,9.089a31.122,31.122,0,0,1,25.833-6.37C29.03,3,29.6.949,28.251.666A33.377,33.377,0,0,0,.365,7.6C-.7,8.452.79,9.938,1.852,9.089Z" transform="translate(67.087 115.981)" fill="#161616"/>
        <path id="Path-141" data-name="Path" d="M1.637,3.491A18.263,18.263,0,0,1,9.21,2.076c1.84,0,5.945-.212,7.219,1.274.92,1.062,2.406-.5,1.486-1.486C16.288-.047,12.607.165,10.342.023a22.112,22.112,0,0,0-9.767,1.7C-.7,2.217.363,3.987,1.637,3.491Z" transform="translate(79.121 124.48)" fill="#161616"/>
        <path id="Path-142" data-name="Path" d="M0,91.3a94.649,94.649,0,0,0,27.532,10.4c13.023,2.69,23.144,1.84,34.539.849a211.306,211.306,0,0,0,39.706-7.785,238.809,238.809,0,0,0,47.774-19.959,177.134,177.134,0,0,0,3.256-24.064,174.73,174.73,0,0,0-.212-26.046,138.638,138.638,0,0,0-14.509-13.872A130.4,130.4,0,0,0,123.081,0Q61.5,45.651,0,91.3Z" transform="translate(1.771 1.422)" fill="#161616"/>
        <path id="Path-143" data-name="Path" d="M123.505,0a130.153,130.153,0,0,1,3.256,14.792,130.959,130.959,0,0,1,.212,36.662,133.753,133.753,0,0,1-4.105,20.171c-2.548,1.557-6.087,3.61-10.4,5.874A162.663,162.663,0,0,1,81.889,89.674a169.958,169.958,0,0,1-37.582,5.662A181.6,181.6,0,0,1,0,91.656c1.274-21.587,2.619-43.1,3.893-64.69,4.034-1.982,9.626-4.6,16.491-7.361a275.433,275.433,0,0,1,53.861-15A297.036,297.036,0,0,1,123.505,0Z" transform="translate(1.134 1.352)" fill="#fff"/>
        <path id="Path-144" data-name="Path" d="M4.39,1.062C2.9,22.578,1.417,44.165,0,65.681c-.071,1.345,2.053,1.345,2.123,0C3.611,44.165,5.1,22.578,6.513,1.062c.071-1.416-2.053-1.416-2.123,0Z" transform="translate(0 27.185)" fill="#161616"/>
        <path id="Path-145" data-name="Path" d="M1.591,28.028a283.512,283.512,0,0,1,116.852-25.9,1.063,1.063,0,0,0,0-2.123A285.036,285.036,0,0,0,.529,26.187c-1.2.566-.142,2.406,1.062,1.84Z" transform="translate(4.993 0.502)" fill="#161616"/>
        <path id="Path-146" data-name="Path" d="M.769,21.463A162.506,162.506,0,0,0,124.487,2c1.132-.708.071-2.548-1.062-1.84A160.7,160.7,0,0,1,1.335,19.41a1.065,1.065,0,0,0-.566,2.053Z" transform="translate(0.011 72.04)" fill="#161616"/>
        <path id="Path-147" data-name="Path" d="M.624,1.335a129,129,0,0,1-.566,71.98c-.425,1.345,1.628,1.84,2.053.566A130.408,130.408,0,0,0,2.676.769a1.065,1.065,0,0,0-2.053.566Z" transform="translate(122.459 0.37)" fill="#161616"/>
        <path id="Path-148" data-name="Path" d="M.484,1.989A119.9,119.9,0,0,1,29.573,28.317c.849,1.062,2.336-.425,1.486-1.486A121.524,121.524,0,0,0,1.546.219C.413-.63-.648,1.21.484,1.989Z" transform="translate(123.801 0)" fill="#161616"/>
        <path id="Path-149" data-name="Path" d="M2.787,1A169.344,169.344,0,0,1,.027,50.26c-.283,1.345,1.769,1.911,2.053.566A170.3,170.3,0,0,0,4.91,1.071C4.769-.345,2.645-.345,2.787,1Z" transform="translate(150.163 26.681)" fill="#161616"/>
        <path id="Path-150" data-name="Path" d="M.723,19.242C6.6,21.648,12.471,23.984,18.346,26.39a52.67,52.67,0,0,0,13.518,3.043,145,145,0,0,0,32.77.849c18.331-1.557,36.45-6.795,53.649-13.094a252.838,252.838,0,0,0,33.69-15.217c1.2-.637.142-2.477-1.062-1.84A268.438,268.438,0,0,1,96.625,21.861C76.807,27.523,56.565,30,35.969,27.735c-4.954-.566-10.475-.92-15.146-2.69-6.582-2.477-13.094-5.308-19.605-7.927-1.2-.425-1.769,1.628-.5,2.123Z" transform="translate(0.199 74.898)" fill="#161616"/>
        <path id="Path-151" data-name="Path" d="M.769,2.068A92.721,92.721,0,0,0,29.433,3.13c1.345-.142,1.345-2.265,0-2.123A91.327,91.327,0,0,1,1.335.016C-.01-.2-.576,1.785.769,2.068Z" transform="translate(122.243 73.669)" fill="#161616"/>
        <path id="Path-152" data-name="Path" d="M3.969,13.929c-1.84-.849-1.557-3.468-1.628-5.1A15.972,15.972,0,0,1,2.27,6.215a6.232,6.232,0,0,1,.566-2.76c.5-1.132,1.274-1.274,2.194-.566,1.628.566,1.416.991,1.416,2.548,0,.92-.071,1.769-.142,2.69s-.071,1.911-.142,2.831c0,.283-.779,5.167-2.123,3.185-.779-1.132-2.619-.071-1.84,1.062,2.053,3.043,5.308.637,5.874-2.123a42.242,42.242,0,0,0,.5-7.927c0-1.628-.283-3.468-1.7-4.459C3.685-1.571.571,2.18.217,5.153-.136,8.2-.49,14.283,2.907,15.84c1.2.5,2.265-1.345,1.062-1.911Z" transform="translate(22.079 29.747)" fill="#161616"/>
        <path id="Path-153" data-name="Path" d="M.947.718a20.286,20.286,0,0,0,.779,13.094c.425,1.062,2.123.991,2.053-.283A87.14,87.14,0,0,1,4.415,1.355H2.292A39.978,39.978,0,0,1,2.646,6.38a11.932,11.932,0,0,1-.071,2.265c-.071.5-.708,2.265-.425.566.212-1.345-1.911-1.345-2.123,0-.283,2.053,1.7,5.167,3.893,3.043.849-.849.779-2.477.849-3.61a41.619,41.619,0,0,0-.283-7.29,1.063,1.063,0,0,0-2.123,0,69.85,69.85,0,0,0-.637,12.174c.708-.071,1.416-.212,2.053-.283A18.723,18.723,0,0,1,3,1.284,1.067,1.067,0,0,0,.947.718Z" transform="translate(24.11 31.067)" fill="#161616"/>
        <path id="Path-154" data-name="Path" d="M.535.718A8.434,8.434,0,0,0,.11,5.106a1.013,1.013,0,0,0,1.274.708A.965.965,0,0,0,2.092,4.54a7.274,7.274,0,0,1,.425-3.256C3.083.01,1.03-.556.535.718Z" transform="translate(23.743 32.837)" fill="#161616"/>
        <path id="Path-155" data-name="Path" d="M4.048,13.938c-1.84-.849-1.557-3.468-1.628-5.1a14.494,14.494,0,0,1-.071-2.477,4.585,4.585,0,0,1,.142-1.416c.071-1.628,1.416-2.123,3.893-1.416.708,1.062.071,4.034,0,5.167-.071.779-.071,1.557-.142,2.336,0,.283-.779,5.167-2.123,3.185-.779-1.132-2.619-.071-1.84,1.062,2.053,3.043,5.308.637,5.874-2.123a45.386,45.386,0,0,0,.5-7.573c0-1.628-.142-3.539-1.486-4.671C4.119-1.7.792,1.835.3,4.808c-.5,3.043-.779,9.413,2.619,11.041,1.345.5,2.406-1.274,1.132-1.911Z" transform="translate(80.744 18.98)" fill="#161616"/>
        <path id="Path-156" data-name="Path" d="M.947.769a20.286,20.286,0,0,0,.779,13.094c.425,1.062,2.123.991,2.053-.283A87.14,87.14,0,0,1,4.415,1.406H2.292a39.978,39.978,0,0,1,.354,5.025A11.932,11.932,0,0,1,2.575,8.7c-.071.5-.708,2.265-.425.566.212-1.345-1.911-1.345-2.123,0-.283,2.053,1.7,5.167,3.893,3.043.849-.849.779-2.477.849-3.61a41.619,41.619,0,0,0-.283-7.29,1.063,1.063,0,0,0-2.123,0A69.85,69.85,0,0,0,1.726,13.58c.708-.071,1.416-.212,2.053-.283A18.723,18.723,0,0,1,3,1.335,1.065,1.065,0,0,0,.947.769Z" transform="translate(82.925 20.329)" fill="#161616"/>
        <path id="Path-157" data-name="Path" d="M.535.687A8.434,8.434,0,0,0,.11,5.076a1.013,1.013,0,0,0,1.274.708.965.965,0,0,0,.708-1.274,7.274,7.274,0,0,1,.425-3.256C3.083-.02,1.03-.516.535.687Z" transform="translate(82.559 22.109)" fill="#161616"/>
        <path id="Path-158" data-name="Path" d="M.749,5.184c6.228.849,14.509.071,20.03-3.185A1.062,1.062,0,0,0,19.717.159c-5.025,2.9-12.74,3.751-18.4,2.973C.041,2.99-.6,5.043.749,5.184Z" transform="translate(42.427 49.674)" fill="#161616"/>
        <path id="Path-159" data-name="Path" d="M.107,4.449C2.018,8.7,6.689,14.641,12.068,13.933c5.308-.637,8.493-8.139,9.626-12.6A1.065,1.065,0,0,0,19.641.769C18.863,3.954,16.6,9.9,13.2,11.315c-4.954,2.053-9.484-4.176-11.183-8C1.381,2.184-.459,3.246.107,4.449Z" transform="translate(42.078 50.551)" fill="#161616"/>
        <path id="Path-160" data-name="Path" d="M.58,4.288c5.45,2.548,13.589,1.2,18.19-2.477L17.283.324a14.627,14.627,0,0,1-9.555,3.4C5.817,3.722,4.26,2.731,2.7,4A1.185,1.185,0,0,0,2.42,5.066C2.774,6.977,5.393,7.9,7.02,8.181c3.4.566,6.511-1.062,9.2-3.043l-1.274-1.7c-2.406,2.76-8.564,4.247-11.183.92-.779-.991-2.194.283-1.7,1.274,1.486,2.69,3.751,5.379,7.148,5.167,3.539-.142,5.733-3.185,7.5-5.874.708-1.062-.779-1.982-1.7-1.274a13.213,13.213,0,0,1-4.53,2.123C9.356,6.2,8.507,5.987,8.931,7.4a2.476,2.476,0,0,0,2.548,1.486c3.043-.142,6.158-4.53,7.5-6.865.566-.991-.849-2.194-1.7-1.274-2.69,2.9-4.247,7.573-8.564,8.21-1.345.212-.779,2.265.566,2.053,4.884-.779,6.511-5.591,9.484-8.776L17.071.961c-.991,1.628-2.69,4.317-4.6,5.1-1.486.566-1.274.212-2.406-.991a3.915,3.915,0,0,0-.849-.991,1.96,1.96,0,0,0-2.973,1.2A1.019,1.019,0,0,0,6.525,6.34C9.568,9.667,13.532,7.4,16.434,5.208l-1.7-1.274c-1.416,2.123-2.69,4.176-5.379,4.53C6.6,8.888,5.039,6.836,3.836,4.571l-1.7,1.274c3.327,4.176,10.97,2.69,14.155-.92.779-.849-.283-2.406-1.274-1.7-2.265,1.7-5.025,3.327-7.927,2.69A4.552,4.552,0,0,1,4.4,4.642a1.341,1.341,0,0,0,1.132.991,7.317,7.317,0,0,0,3.043.142A17.524,17.524,0,0,0,18.628,1.74C19.689.891,18.2-.6,17.142.254,13.461,3.155,5.959,4.5,1.5,2.377.367,1.881-.694,3.722.58,4.288Z" transform="translate(43.374 51.562)" fill="#161616"/>
        <path id="Path-161" data-name="Path" d="M1.57,5.789A30.3,30.3,0,0,0,6.1,1.825L4.4.551a37.47,37.47,0,0,0-2.053,3.68,1.74,1.74,0,0,0,.283,1.911,1.708,1.708,0,0,0,1.911.212A21.634,21.634,0,0,0,7.87,4.019L6.383,2.533c-.425,1.062-1.84,3.114-.637,4.105C7.091,7.77,8.294,5.789,9,4.939c.849-1.062-.637-2.548-1.486-1.486-.283.283-.849,1.345-1.274,1.416.354.071.708.212,1.062.283-.071-.071-.142-.142-.142-.212.071.283.212.5.283.779a7.225,7.225,0,0,1,.779-2.053c.354-.849-.5-2.123-1.486-1.486-.425.283-2.76,2.336-3.114,2.194.212.142.425.354.637.5-.071-.071-.071-.212-.142-.283.071.283.071.566.142.849C4.472,4.161,5.6,2.745,6.242,1.613A1.074,1.074,0,0,0,4.543.339,28.3,28.3,0,0,1,.438,3.948c-1.062.779,0,2.619,1.132,1.84Z" transform="translate(49.957 55.157)" fill="#161616"/>
        <path id="Path-162" data-name="Path" d="M3.47,1.009Q1.028,29.567,0,58.267c-.071,1.345,2.053,1.345,2.123,0Q3.187,29.6,5.593,1.009c.142-1.345-1.982-1.345-2.123,0Z" transform="translate(6.724 30.848)" fill="#161616"/>
        <path id="Path-163" data-name="Path" d="M2.8,1.284C8.18,21.385,4.783,42.122.041,61.94a1.065,1.065,0,0,0,2.053.566C6.977,42.335,10.374,21.173,4.854.718A1.067,1.067,0,0,0,2.8,1.284Z" transform="translate(116.247 8.136)" fill="#161616"/>
        <path id="Path-164" data-name="Path" d="M.769,2.068C7,3.2,13.3,4.333,19.525,5.465c1.345.212,1.911-1.769.566-2.053C13.863,2.28,7.563,1.148,1.335.015-.01-.2-.576,1.856.769,2.068Z" transform="translate(125.286 71.83)" fill="#fff"/>
        <path id="Path-165" data-name="Path" d="M51.561,2.666a15.078,15.078,0,0,0-1.628,3.822,17.244,17.244,0,0,0-.354,6.087c-4.247,4.317-15.217,14.3-32.133,16.7A50.79,50.79,0,0,1,.46,28.924c-.5,1.84-.849,4.176.354,5.167.779.708,1.911.425,3.822.354a30.607,30.607,0,0,1,6.441.637c4.388.5,16-1.557,28.594-8.635A78.153,78.153,0,0,0,52.835,17.1a9.083,9.083,0,0,0,6.724,3.539c5.308-.071,7.785-5.874,8-6.441A10.593,10.593,0,0,0,66.282,3.586,9.951,9.951,0,0,0,59.559.048,10.739,10.739,0,0,0,51.561,2.666Z" transform="translate(82.563 27.491)" fill="#fff" stroke="#000" stroke-miterlimit="10" stroke-width="2"/>
        <path id="Path-166" data-name="Path" d="M1.529.25C-1.727,5.346.255,12.778,7.12,12.636a.531.531,0,1,0,0-1.062C1.033,11.716-.312,5.063,2.449.745c.425-.566-.5-1.062-.92-.5Z" transform="translate(136.417 31.323)"/>
        <path id="Path-167" data-name="Path" d="M2.245,5.856A2.994,2.994,0,0,1,1.113,2.813C1.4,1.751,2.74.689,3.873,1.256a2.889,2.889,0,0,1,1.062,3.61,1.812,1.812,0,0,1-3.043.5c-.425-.566-1.345,0-.92.566a2.916,2.916,0,0,0,4.317.283A4.031,4.031,0,0,0,5.147.76a2.991,2.991,0,0,0-4.53.708,3.794,3.794,0,0,0,.92,5.1c.5.425,1.2-.283.708-.708Z" transform="translate(140.513 32.582)"/>
        <path id="Path-168" data-name="Path" d="M.109.745A4.687,4.687,0,0,1,.746,5.7c-.283.637.637,1.132.92.566A5.79,5.79,0,0,0,1.029.25C.6-.316-.315.179.109.745Z" transform="translate(97.847 56.378)"/>
        <path id="Path-169" data-name="Path" d="M.08.792A4.2,4.2,0,0,1,.15,4.684c-.283.637.637,1.132.92.566A5.545,5.545,0,0,0,1,.3a.523.523,0,1,0-.92.5Z" transform="translate(85.845 56.473)"/>
        <path id="Path-170" data-name="Path" d="M.13.906A2.263,2.263,0,0,1,.272,3.878c-.425.5.354,1.274.779.779A3.35,3.35,0,0,0,.909.2C.413-.368-.294.41.13.906Z" transform="translate(88.909 57.138)"/>
        <path id="Path-171" data-name="Path" d="M.2,1A2.269,2.269,0,0,1,.274,4.539c-.5.425.212,1.2.779.779A3.379,3.379,0,0,0,.77.08C.2-.274-.292.646.2,1Z" transform="translate(92.303 57.115)"/>
        <path id="Path-172" data-name="Path" d="M2.479,5.111C.993,4.545,1.489,2.7,2.479,2a1.953,1.953,0,0,1,2.9.566C6.726,4.9,3.541,6.81,1.913,4.9,1.276,4.12.144,5.252.781,6.031a3.963,3.963,0,0,0,5.45.354,3.8,3.8,0,0,0,0-5.379A3.7,3.7,0,0,0,.852,1.36a3.306,3.306,0,0,0,1.2,5.308c.991.283,1.345-1.2.425-1.557Z" transform="translate(107.014 5.3)"/>
        <path id="Path-173" data-name="Path" d="M52.446,0a279.536,279.536,0,0,0,3.043,28.452c1.062,6.795,2.336,13.306,3.751,19.322q-2.336,1.486-4.884,2.973a102.1,102.1,0,0,1-23.71,9.767,63.245,63.245,0,0,0,13.8-1.062,61.943,61.943,0,0,0,15.5-5.1,143.135,143.135,0,0,1-22.79,20.313A143.981,143.981,0,0,1,0,93.779c7.715,2.69,15.429,5.379,23.073,8.069.566,10.475,1.132,20.95,1.7,31.5,3.893-.991,7.785-1.982,11.749-3.043-.566-6.582-1.062-13.377-1.345-20.454-.142-3.963-.283-7.856-.354-11.749,6.724-1.84,12.244-3.61,16.42-5.025A252.617,252.617,0,0,0,80.685,81.039c5.1-2.477,9.2-4.742,12.032-6.37C93.5,69.786,94.2,64.69,94.7,59.24a220.114,220.114,0,0,0,.637-34.468A107.617,107.617,0,0,0,82.313,11.4,105.882,105.882,0,0,0,66.247,0Z" transform="translate(59.879 1.635)" fill="#1e1e1e" opacity="0.16"/>
      </g>
    </g>
    <g id="tabs" transform="translate(288.329 218.888)">
      <path id="Path-174" data-name="Path" d="M0,0C.566,26.117,1.062,52.233,1.628,78.35a654.1,654.1,0,0,0,98.733,19.605,648.717,648.717,0,0,0,137.873,1.628c1.062-26.683,2.194-53.295,3.256-79.978q-48.836-1.911-100.361-5.733Q67.769,8.352,0,0Z" transform="translate(104.138 295.899)" fill="#ec615b" opacity="0.3"/>
      <g id="Group" transform="translate(117.216 308.277)" opacity="0.3">
        <g id="Group-2" data-name="Group" transform="translate(0 0)">
          <path id="Path-175" data-name="Path" d="M.769,2.079A660.13,660.13,0,0,0,121.514,16.872c1.345.071,1.345-2.053,0-2.123A653.964,653.964,0,0,1,1.335.027C-.01-.256-.576,1.8.769,2.079Z" transform="translate(0 0)" fill="#ec615b"/>
        </g>
      </g>
      <g id="Group-3" data-name="Group" transform="translate(118.985 322.755)" opacity="0.3">
        <g id="Group-4" data-name="Group" transform="translate(0 0)">
          <path id="Path-176" data-name="Path" d="M.769,2.11a292.617,292.617,0,0,0,55.7,10.9c1.345.142,1.345-1.982,0-2.123A292.284,292.284,0,0,1,1.335.058,1.065,1.065,0,0,0,.769,2.11Z" transform="translate(0 0)" fill="#ec615b"/>
        </g>
      </g>
      <g id="Group-5" data-name="Group" transform="translate(173.837 378.923)" opacity="0.3">
        <g id="Group-6" data-name="Group" transform="translate(0 0)">
          <path id="Path-177" data-name="Path" d="M.769,2.068C50.454,9.641,100.918,17.143,151.24,11.41c1.345-.142,1.345-2.265,0-2.123C101.06,15.02,50.879,7.588,1.335.015-.01-.2-.576,1.856.769,2.068Z" transform="translate(0 0)" fill="#ec615b"/>
        </g>
      </g>
      <g id="Group-7" data-name="Group" transform="translate(251.196 375.384)" opacity="0.3">
        <g id="Group-8" data-name="Group" transform="translate(0 0)">
          <path id="Path-178" data-name="Path" d="M.769,2.068A281.9,281.9,0,0,0,77.916,5.324c1.345-.142,1.345-2.265,0-2.123A283.391,283.391,0,0,1,1.335.016C-.01-.2-.576,1.785.769,2.068Z" transform="translate(0 0)" fill="#ec615b"/>
        </g>
      </g>
      <g id="Group-9" data-name="Group" transform="translate(301.109 324.704)" opacity="0.3">
        <g id="Group-10" data-name="Group" transform="translate(0 0)">
          <path id="Path-179" data-name="Path" d="M1.886,2.426A76.737,76.737,0,0,1,.045,31.091a1.075,1.075,0,0,0,.991,1.345c6.087.5,12.1.991,18.19,1.486,2.619.212,8.493,2.053,10.121-.849.849-1.486.637-4.034.779-5.662.142-2.548.212-5.1.354-7.644.283-5.8.779-11.537,2.619-17.128a1.049,1.049,0,0,0-.991-1.345A110.881,110.881,0,0,1,4.717.02,1.054,1.054,0,0,0,3.443,1.294,2.547,2.547,0,0,0,4.08,2.851c.779,1.132,2.619.071,1.84-1.062L5.5.728,4.221,2A112.045,112.045,0,0,0,32.178,3.346,16.327,16.327,0,0,1,31.187,2c-2.831,8.422-2.548,17.2-3.114,25.9-.071.779,0,3.114-.354,3.61-.779,1.062-2.548.637-3.539.566-2.548-.212-5.1-.425-7.715-.637C11.37,31.02,6.2,30.6,1.107,30.171A16.328,16.328,0,0,1,2.1,31.515,76.744,76.744,0,0,0,4.009,2.285c-.142-1.2-2.265-1.2-2.123.142Z" transform="translate(0 0)" fill="#ec615b"/>
        </g>
      </g>
      <path id="Path-180" data-name="Path" d="M0,2.9Q.955,55.56,1.911,108.288q73.042,9.236,146.012,18.4Q149.834,63.31,151.816,0,75.908,1.486,0,2.9Z" transform="translate(0 0)" fill="#c41a27" opacity="0.38"/>
      <path id="Path-181" data-name="Path" d="M118.256,106.895c.708-1.345,2.336-3.468,2.548-5.025.142-1.132-.92-2.265-1.486-3.185-2.336-3.893-4.671-7.856-6.936-11.749-1.132-1.911-2.548-3.893-3.468-5.874-1.132-2.406-.071-3.185,1.132-5.237A70.011,70.011,0,0,0,114.93,65.7c4.813-12.74,5.591-27.391-.142-39.989C105.446,5.118,82.868.446,62.413.022,41.251-.474,19.877,7.453,7.278,25.148-7.3,45.6,1.4,74.267,21.151,87.856c20.6,14.226,49.4,13.589,70.918,2.053,1.2-.637.142-2.477-1.062-1.84a69.619,69.619,0,0,1-56.338,4.247C15.418,85.52.625,66.481,2.041,45.46,3.669,21.821,26.884,6.6,48.329,3.065a90.79,90.79,0,0,1,19.605-.708c8.989.5,18.048,1.769,26.258,5.591a38.534,38.534,0,0,1,21.8,28.381c2.76,14.863-1.911,30.151-10.192,42.4a.964.964,0,0,0,0,1.062l7.644,12.952c1.132,1.982,2.336,3.893,3.468,5.874.708,1.2,1.628,2.194,1.486,3.68-.071,1.062-1.345,2.619-1.84,3.61a.985.985,0,1,0,1.7.991Z" transform="translate(8.859 8.401)" fill="#9e101a"/>
      <path id="Path-182" data-name="Path" d="M.365,1.776A95.747,95.747,0,0,0,26.128,17.064c1.274.5,1.84-1.557.566-2.053A94.786,94.786,0,0,1,1.852.29C.79-.631-.7.856.365,1.776Z" transform="translate(99.855 97.524)" fill="#9e101a"/>
      <ellipse id="Oval-7" data-name="Oval" cx="5.096" cy="7.432" rx="5.096" ry="7.432" transform="translate(31.92 48.624)" fill="#c41a27"/>
      <ellipse id="Oval-8" data-name="Oval" cx="5.096" cy="7.432" rx="5.096" ry="7.432" transform="translate(61.08 47.703)" fill="#c41a27"/>
      <path id="Oval-9" data-name="Oval" d="M5.1,0c2.814,0,5.1,3.327,5.1,7.432S7.91,14.863,5.1,14.863,0,11.536,0,7.432,2.282,0,5.1,0Z" transform="translate(89.462 46.854)" fill="#c41a27"/>
    </g>
  </g>
</svg>
